<svg xmlns="http://www.w3.org/2000/svg" role="img" aria-labelledby="title desc" width="180" height="220" viewBox="15 10 180 220" version="1.1">
	<title id="title">LearnLoop logo mark</title>
	<desc id="desc">The LearnLoop double L loop monogram extracted from the selected logo concept.</desc>
	<path d="M 25.656 19.133 C 21.100 21.781, 21 23.278, 21.006 88.218 C 21.009 126.186, 21.393 150.876, 22.016 153.118 C 23.462 158.321, 26.892 162.978, 31.849 166.463 L 36.169 169.500 87.563 170 L 138.957 170.500 141.641 173.185 C 143.734 175.280, 144.427 177.101, 144.789 181.465 L 145.253 187.060 157.376 186.780 L 169.500 186.500 169.500 178 C 169.500 173.325, 168.884 167.381, 168.132 164.792 C 166.460 159.040, 161.196 152.686, 155.643 149.716 C 151.568 147.536, 150.698 147.492, 102.500 147 C 66.370 146.631, 52.937 146.177, 51.355 145.271 C 50.176 144.595, 48.713 142.616, 48.105 140.872 C 47.347 138.697, 47 119.294, 47 79.051 C 47 34.767, 46.706 20.106, 45.800 19.200 C 44.286 17.686, 28.237 17.633, 25.656 19.133 M 74.635 70.073 L 72 72.145 72 105.573 L 72 139 84.500 139 L 97 139 97 105.155 C 97 65.186, 97.886 68, 85.306 68 C 78.690 68, 76.804 68.366, 74.635 70.073 M 72 190.134 C 72 204.144, 73.037 208.516, 77.638 213.890 C 84.133 221.478, 84.022 221.463, 133.054 221.798 C 176.144 222.093, 176.637 222.074, 179.304 219.976 C 181.851 217.972, 182 217.389, 182 209.427 C 182 196.042, 185.180 197, 140.723 197 C 99.178 197, 99.962 197.124, 98.044 190.221 C 97.476 188.174, 97.009 184.588, 97.006 182.250 L 97 178 84.500 178 L 72 178 72 190.134" stroke="none" fill="#1C1C1C" fill-rule="evenodd"/>
</svg>
